<?xml version="1.0" encoding="utf-8"?>
<!-- Generator: Adobe Illustrator 17.1.0, SVG Export Plug-In . SVG Version: 6.00 Build 0)  -->
<!DOCTYPE svg PUBLIC "-//W3C//DTD SVG 1.1//EN" "http://www.w3.org/Graphics/SVG/1.1/DTD/svg11.dtd">
<svg version="1.1" id="Layer_1" xmlns="http://www.w3.org/2000/svg" xmlns:xlink="http://www.w3.org/1999/xlink" x="0px" y="0px"
	 viewBox="0 0 94.5 32" enable-background="new 0 0 94.5 32" xml:space="preserve">
<g>
	<g>
		<path fill="#FFFFFF" d="M41.9,25.7c-2.7,0-4.8-0.8-6.2-2.2c-1.4-1.5-2.1-3.7-2.1-6.5c0-5.5,2.9-8.7,8-8.7c2.7,0,4.8,0.9,6.1,2.7
			c1.2,1.7,1.4,3.7,1.4,4.5c0,1,0,2.7-2,2.7h-9.9c0.2,2.8,2,4.4,4.8,4.4c1.9,0,3.9-1.1,5-2.1c0.6-0.5,1.4,0.6,1.4,1.4
			c0,1.5-0.9,2.3-1.8,2.7C45.5,25.2,44.1,25.7,41.9,25.7z M45,15.1c0.3,0,0.5-0.2,0.5-0.5c-0.3-2.2-1.6-3.3-3.9-3.3
			c-2.5,0-4,1.3-4.4,3.8H45z"/>
		<path fill="#FFFFFF" d="M24.2,25.7c-2.6,0-4.6-0.8-5.9-2.3c-1.3-1.5-2-3.7-2-6.5c0-2.9,0.7-5.1,2-6.5c1.3-1.4,3.3-2.2,5.8-2.2
			c2,0,3.5,0.8,4.3,1.4V3.2c0-2.2,1-3,2.8-3.2c0.4,0,0.7,0.2,0.7,0.6v17.8C31.8,23,29,25.7,24.2,25.7z M24.2,11.3
			c-3,0-4.5,1.8-4.5,5.6c0,3.9,1.4,5.7,4.5,5.7c2.7,0,4.1-1.5,4.1-4.2v-3.1c0-2.1-1.7-3.9-3.9-4C24.4,11.3,24.3,11.3,24.2,11.3z"/>
		<g>
			<path fill="#FFFFFF" d="M7.2,25.7c-2.7,0-4.7-0.7-5.9-2.1C0.5,22.5,0,21,0,18.9v-6.6c0-0.9,0.8-1.6,1.7-1.6c1,0,1.7,0.7,1.7,1.6
				v6.6c0,2.5,1.1,3.6,3.8,3.6c2.7,0,3.8-1,3.8-3.6v-6.2c0-0.9,3.5-1.6,3.5-1.6v7.9c0,2-0.5,3.6-1.4,4.6C11.9,25,10,25.7,7.2,25.7z"
				/>
			<path fill="#FFFFFF" d="M13.8,8.2C12.1,8.4,11,9.3,11,11.5v1.7h3.5V8.8C14.5,8.5,14.2,8.2,13.8,8.2z"/>
			<path fill="#FFFFFF" d="M2.8,8.4C1,8.6,0,9.5,0,11.7v1.7h3.5V9C3.5,8.7,3.1,8.4,2.8,8.4z"/>
		</g>
		<g>
			<path fill="#FFFFFF" d="M73.2,22.3v-7c0-2.8-1.2-4-3.9-4c-2.6,0-3.9,1.2-3.9,3.5v7.5c0,0.9-3.5,0.7-3.5,0.7v-7.8
				c0-2.8-1.1-4-3.8-4c-2.7,0-3.8,1.3-3.8,4.2V23c0,0.9-3.5,0-3.5,0V12.2c0-0.9,3.2-3.3,3.4-2.6c1-0.9,2.5-1.4,4.1-1.4
				c2.5,0,4.5,0.7,5.7,2c1.2-1.3,3-2,5.2-2c2.7,0,4.7,0.7,5.9,2.2c0.9,1.1,1.4,2.6,1.4,4.4v7.4C76.2,22.9,73.2,22.3,73.2,22.3z"/>
			<path fill="#FFFFFF" d="M75.9,25.5c-1.7-0.2-2.8-1.1-2.8-3.2v-1.7h3.5v4.3C76.6,25.2,76.3,25.5,75.9,25.5z"/>
			<path fill="#FFFFFF" d="M64.7,25.5c-1.7-0.2-2.8-1.1-2.8-3.2v-1.7h3.5v4.3C65.4,25.2,65,25.5,64.7,25.5z"/>
			<path fill="#FFFFFF" d="M53.6,25.5c-1.7-0.2-2.8-1.1-2.8-3.2v-1.7h3.5v4.3C54.3,25.2,53.9,25.5,53.6,25.5z"/>
			<path fill="#FFFFFF" d="M51.6,8.2c1.9,0.2,3.1,1.1,3.1,3.2v1.7h-3.8V8.8C50.8,8.5,51.2,8.2,51.6,8.2z"/>
		</g>
		<path fill="#FFFFFF" d="M94.1,8.5L94.1,8.5c-0.4-0.2-0.9-0.2-1.3-0.2c-1,0-1.9,0.4-2.2,1.2L85.7,20l-2.9-6.6l-1.7-4
			c-0.4-0.7-1.2-1.2-2.2-1.2c-0.4,0-0.9,0.1-1.3,0.2l0,0c-0.3,0.1-0.5,0.4-0.3,0.7l1.9,4.2L83.9,24c-1.4,3.2-2.1,4.9-4.8,4.9h-1.5
			c-0.5,0-0.9,0.4-0.8,0.9c0.1,1.3,1.4,2.2,2.9,2.2c3,0,5.1-1.8,6.6-5.3l8.1-17.5C94.6,8.9,94.4,8.6,94.1,8.5z"/>
	</g>
</g>
</svg>
